<?xml version="1.0" encoding="UTF-8" standalone="no"?>
<!-- Created with Inkscape (http://www.inkscape.org/) -->

<svg
   width="26mm"
   height="37mm"
   viewBox="0 0 25.999999 37"
   version="1.1"
   id="svg1725"
   xmlns="http://www.w3.org/2000/svg"
   xmlns:svg="http://www.w3.org/2000/svg">
  <defs
     id="defs1722" />
  <g
     id="layer1">
    <path
       d="m 25.129823,18.734156 c 0,5.368396 -1.066271,9.638771 -3.201459,12.811125 -2.135187,3.159125 -5.00327,4.736042 -8.606895,4.736042 -3.899959,0 -6.95325,-1.592792 -9.162521,-4.781021 -2.193396,-3.172354 -3.291417,-7.606771 -3.291417,-13.300604 0,-5.381625 1.098021,-9.638771 3.291417,-12.766146 2.209271,-3.14325 5.188479,-4.714875 8.940271,-4.714875 3.751791,0 6.731,1.592792 8.852958,4.781021 2.119312,3.188229 3.180292,7.598833 3.180292,13.234458 z m -9.165167,-0.06879 c 0,-6.627813 -1.000125,-9.943042 -3.003021,-9.943042 -2.002895,0 -2.979208,2.965979 -2.979208,8.895292 0,7.088187 0.971021,10.630958 2.913063,10.630958 1.053041,0 1.82827,-0.775229 2.323041,-2.323042 0.497417,-1.550458 0.746125,-3.96875 0.746125,-7.262812 z"
       id="path1505"
       style="stroke-width:0.264583" />
  </g>
</svg>
