<?xml version="1.0" encoding="UTF-8" standalone="no"?>
<!-- Created with Inkscape (http://www.inkscape.org/) -->

<svg
   width="26mm"
   height="37mm"
   viewBox="0 0 25.999999 37"
   version="1.1"
   id="svg1725"
   xmlns="http://www.w3.org/2000/svg"
   xmlns:svg="http://www.w3.org/2000/svg">
  <defs
     id="defs1722" />
  <g
     id="layer1">
    <path
       d="M 24.601979,35.983666 H 0.958812 l 9.384771,-12.522729 c 1.068917,-1.423459 1.963209,-2.693459 2.690813,-3.815292 0.727604,-1.119187 1.296458,-2.108729 1.711854,-2.968625 0.814916,-1.616604 1.222375,-3.275541 1.222375,-4.982103 0,-0.93398 -0.193146,-1.674812 -0.579438,-2.2251465 -0.386291,-0.547687 -0.912812,-0.822854 -1.579562,-0.822854 -1.481667,0 -2.225146,1.3943545 -2.225146,4.1804175 0,0.148166 0.0026,0.325437 0.01058,0.534458 0.0079,0.209021 0.01852,0.452437 0.0344,0.732896 H 2.623043 L 2.578063,12.8485 c 0,-3.4554585 1.068917,-6.2865005 3.201459,-8.4957705 2.148416,-2.225146 4.900083,-3.336396 8.252354,-3.336396 3.352271,0 5.871104,1.053041 7.918979,3.159125 2.061104,2.061104 3.090333,4.751916 3.090333,8.0724375 0,2.669646 -0.703791,5.262563 -2.114021,7.784042 -0.711729,1.259416 -1.635125,2.584979 -2.770187,3.96875 -1.135063,1.386416 -2.510896,2.84427 -4.124854,4.370916 1.394354,-0.103187 2.799291,-0.177271 4.214812,-0.22225 1.415521,-0.04498 2.865438,-0.06615 4.347104,-0.06615 v 7.895166 z"
       id="path1509"
       style="stroke-width:0.264583" />
  </g>
</svg>
