<?xml version="1.0" encoding="UTF-8" standalone="no"?>
<!-- Created with Inkscape (http://www.inkscape.org/) -->

<svg
   width="26mm"
   height="37mm"
   viewBox="0 0 25.999999 37"
   version="1.1"
   id="svg1725"
   xmlns="http://www.w3.org/2000/svg"
   xmlns:svg="http://www.w3.org/2000/svg">
  <defs
     id="defs1722" />
  <g
     id="layer1">
    <path
       d="m 1.542219,25.585535 h 9.051396 c 0,2.061104 0.756708,3.090333 2.267479,3.090333 0.756708,0 1.370541,-0.293686 1.846791,-0.878417 0.473605,-0.584728 0.71173,-1.352019 0.71173,-2.301874 0,-2.415646 -1.259417,-3.624791 -3.780896,-3.624791 -0.177271,0 -0.399521,0.01058 -0.66675,0.0344 -0.267229,0.02381 -0.5715,0.04762 -0.912813,0.07673 v -7.318375 c 0.251354,0.01587 0.470959,0.02646 0.656167,0.0344 0.185208,0.0079 0.336021,0.01058 0.455083,0.01058 2.534709,0 3.802063,-1.164167 3.802063,-3.4925 0,-1.8970625 -0.658813,-2.8469165 -1.979084,-2.8469165 -1.037166,0 -1.632479,0.764645 -1.780645,2.2912915 l -0.04498,0.468313 H 2.203677 C 2.455031,7.9272495 3.574219,5.3978335 5.56124,3.5431045 c 1.971145,-1.883834 4.55877,-2.82575 7.762875,-2.82575 3.204104,0 5.590645,0.963083 7.60677,2.891895 2.061104,1.912938 3.090334,4.278313 3.090334,7.0961245 0,3.159125 -1.386417,5.566834 -4.15925,7.228417 3.069166,1.764771 4.60375,4.418542 4.60375,7.961312 0,3.069167 -1.090084,5.566834 -3.27025,7.495646 -2.151063,1.928813 -4.945063,2.891896 -8.384646,2.891896 -3.439583,0 -6.080125,-0.941916 -8.141229,-2.825749 C 2.579386,31.573062 1.534281,29.120374 1.534281,26.096187 v -0.510646 z"
       id="path1511"
       style="stroke-width:0.264583" />
  </g>
</svg>
