<?xml version="1.0" encoding="UTF-8" standalone="no"?>
<!-- Created with Inkscape (http://www.inkscape.org/) -->

<svg
   width="26mm"
   height="37mm"
   viewBox="0 0 25.999999 37"
   version="1.1"
   id="svg1725"
   xmlns="http://www.w3.org/2000/svg"
   xmlns:svg="http://www.w3.org/2000/svg">
  <defs
     id="defs1722" />
  <g
     id="layer1">
    <path
       d="m 1.756535,33.304763 1.09008,-8.141229 c 2.74373,1.5875 5.19642,2.378604 7.36071,2.378604 1.40758,0 2.55058,-0.354542 3.42635,-1.066271 0.889,-0.711729 1.3335,-1.63777 1.3335,-2.78077 0,-1.214438 -0.48154,-2.161646 -1.44462,-2.836334 -0.96309,-0.674687 -2.3204,-1.010708 -4.06929,-1.010708 -1.91294,0 -3.92113,0.399521 -6.02721,1.201208 L 6.095695,1.030888 h 17.0815 v 8.072438 h -9.78693 l -0.7329,3.847041 c 0.63765,-0.04498 1.15623,-0.06615 1.55575,-0.06615 2.81781,0 5.19642,1.023937 7.13846,3.069166 1.92881,2.016125 2.89189,4.537604 2.89189,7.561792 0,3.558646 -1.24618,6.524625 -3.73591,8.895291 -2.46063,2.373313 -5.56684,3.558646 -9.31863,3.558646 -3.20146,0 -6.34735,-0.889 -9.42975,-2.669646 z"
       id="path1515"
       style="stroke-width:0.264583" />
  </g>
</svg>
