<?xml version="1.0" encoding="UTF-8" standalone="no"?>
<!-- Created with Inkscape (http://www.inkscape.org/) -->

<svg
   width="26mm"
   height="37mm"
   viewBox="0 0 25.999999 37"
   version="1.1"
   id="svg1725"
   xmlns="http://www.w3.org/2000/svg"
   xmlns:svg="http://www.w3.org/2000/svg">
  <defs
     id="defs1722" />
  <g
     id="layer1">
    <path
       d="M 20.05114,1.0322085 14.55839,10.795333 C 14.34937,11.16575 14.10595,11.5785 13.8255,12.030937 13.54239,12.483375 13.22489,12.9755 12.8677,13.509958 14.09802,12.856437 15.1881,12.531 16.13795,12.531 c 2.35744,0 4.3524,1.066272 5.98223,3.201459 1.64571,2.119312 2.46857,4.714874 2.46857,7.784041 0,3.661833 -1.10596,6.664854 -3.31523,9.006416 -2.20927,2.299229 -5.08529,3.447522 -8.63071,3.447522 -3.54542,0 -6.08013,-1.135063 -8.14123,-3.402543 -2.0611,-2.283354 -3.09033,-5.286375 -3.09033,-9.006416 0,-3.987271 1.84679,-9.495895 5.53773,-16.5258745 l 3.13531,-6.006042 h 9.96421 z m -4.3815,22.7303535 c 0,-3.024187 -0.88106,-4.537604 -2.64583,-4.537604 -1.76477,0 -2.53471,1.526646 -2.53471,4.582583 0,3.055938 0.84402,4.759854 2.53471,4.759854 1.69069,0 2.64583,-1.600729 2.64583,-4.804833 z"
       id="path1517"
       style="stroke-width:0.264583" />
  </g>
</svg>
