<?xml version="1.0" encoding="UTF-8" standalone="no"?>
<!-- Created with Inkscape (http://www.inkscape.org/) -->

<svg
   width="26mm"
   height="37mm"
   viewBox="0 0 25.999999 37"
   version="1.1"
   id="svg1725"
   xmlns="http://www.w3.org/2000/svg"
   xmlns:svg="http://www.w3.org/2000/svg">
  <defs
     id="defs1722" />
  <g
     id="layer1">
    <path
       d="m 19.394975,17.797531 c 3.54277,1.542521 5.31548,4.241271 5.31548,8.09625 0,2.995083 -1.11125,5.479521 -3.33639,7.450667 -2.22515,1.957916 -5.01915,2.936875 -8.38465,2.936875 -3.3655,0 -6.02721,-1.000125 -8.29733,-3.003021 -2.26748,-2.016125 -3.40254,-4.471458 -3.40254,-7.360708 0,-3.854979 1.94998,-6.561667 5.84993,-8.117417 -3.43958,-1.172104 -5.15937,-3.566583 -5.15937,-7.183437 0,-2.860146 1.02394,-5.225521 3.06917,-7.096125 2.0611,-1.867959 4.66195,-2.801938 7.80785,-2.801938 3.1459,0 5.90021,0.92075 8.00629,2.756959 2.14842,1.838854 3.22527,4.130145 3.22527,6.873875 0,1.780645 -0.37041,3.262312 -1.11125,4.447645 -0.74083,1.185334 -1.9341,2.188104 -3.57981,3.003021 z m -4.13543,7.093479 c 0,-2.312458 -0.75671,-3.468687 -2.26748,-3.468687 -0.32544,0 -0.62707,0.08996 -0.90223,0.267229 -0.27517,0.177271 -0.51065,0.423333 -0.71173,0.732896 -0.20108,0.309562 -0.35454,0.685271 -0.46831,1.124479 -0.11113,0.436563 -0.16669,0.915458 -0.16669,1.434042 0,1.023937 0.21167,1.8415 0.635,2.457979 0.42333,0.616479 0.97367,0.923396 1.65629,0.923396 0.32544,0 0.62706,-0.08467 0.89958,-0.256646 0.27517,-0.169334 0.508,-0.407459 0.70115,-0.711729 0.19315,-0.304271 0.34396,-0.66675 0.45508,-1.090084 0.11113,-0.423333 0.16669,-0.894291 0.16669,-1.412875 z m -0.29105,-13.790083 c 0,-0.904875 -0.17727,-1.629833 -0.53445,-2.180166 -0.35719,-0.547688 -0.8308,-0.822855 -1.42346,-0.822855 -0.59267,0 -1.03717,0.259292 -1.37848,0.777875 -0.34131,0.518584 -0.51065,1.209146 -0.51065,2.069042 0,2.090208 0.64559,3.135312 1.93411,3.135312 1.28852,0 1.91293,-0.992187 1.91293,-2.979208 z"
       id="path1521"
       style="stroke-width:0.264583" />
  </g>
</svg>
