<?xml version="1.0" encoding="UTF-8" standalone="no"?>
<!-- Created with Inkscape (http://www.inkscape.org/) -->

<svg
   width="26mm"
   height="37mm"
   viewBox="0 0 25.999999 37"
   version="1.1"
   id="svg1725"
   xmlns="http://www.w3.org/2000/svg"
   xmlns:svg="http://www.w3.org/2000/svg">
  <defs
     id="defs1722" />
  <g
     id="layer1">
    <path
       d="m 5.92769,35.979698 5.49275,-9.763125 c 0.20637,-0.370417 0.45508,-0.783167 0.74612,-1.235604 0.2884,-0.452438 0.61119,-0.944563 0.96838,-1.479021 -1.23031,0.653521 -2.3204,0.978958 -3.27025,0.978958 -2.35744,0 -4.36034,-1.060979 -6.00604,-3.180291 -1.63248,-2.164292 -2.4474,-4.767792 -2.4474,-7.807855 0,-3.661833 1.10331,-6.664854 3.31523,-9.006416 2.1934,-2.312458 5.07206,-3.468688 8.63071,-3.468688 3.3655,0 6.08012,1.143 8.14123,3.426355 2.0611,2.283354 3.09033,5.286375 3.09033,9.006416 0,3.974042 -1.85473,9.482667 -5.56154,16.525875 L 15.8919,35.982344 H 5.92769 Z m 4.40266,-22.751521 c 0,3.040063 0.889,4.558771 2.66965,4.558771 1.78065,0 2.53471,-1.534583 2.53471,-4.60375 0,-3.069167 -0.85196,-4.781021 -2.55852,-4.781021 -1.70656,0 -2.64584,1.608667 -2.64584,4.826 z"
       id="path1523"
       style="stroke-width:0.264583" />
  </g>
</svg>
